<?xml version="1.0" encoding="UTF-8" standalone="no"?>
<svg
   xmlns:dc="http://purl.org/dc/elements/1.1/"
   xmlns:cc="http://creativecommons.org/ns#"
   xmlns:rdf="http://www.w3.org/1999/02/22-rdf-syntax-ns#"
   xmlns:svg="http://www.w3.org/2000/svg"
   xmlns="http://www.w3.org/2000/svg"
   xmlns:sodipodi="http://sodipodi.sourceforge.net/DTD/sodipodi-0.dtd"
   xmlns:inkscape="http://www.inkscape.org/namespaces/inkscape"
   inkscape:version="1.0 (4035a4f, 2020-05-01)"
   sodipodi:docname="tbl-banner.svg"
   id="svg902"
   version="1.1"
   viewBox="0 0 750 200.00001"
   height="200"
   width="750">
  <metadata
     id="metadata906">
    <rdf:RDF>
      <cc:Work
         rdf:about="">
        <dc:format>image/svg+xml</dc:format>
        <dc:type
           rdf:resource="http://purl.org/dc/dcmitype/StillImage" />
        <dc:title />
      </cc:Work>
    </rdf:RDF>
  </metadata>
  <sodipodi:namedview
     inkscape:current-layer="svg902"
     inkscape:window-maximized="0"
     inkscape:window-y="23"
     inkscape:window-x="89"
     inkscape:cy="217.34715"
     inkscape:cx="358.57041"
     inkscape:zoom="1.6436996"
     fit-margin-bottom="0"
     fit-margin-right="0"
     fit-margin-left="0"
     fit-margin-top="0"
     showgrid="false"
     id="namedview904"
     inkscape:window-height="1215"
     inkscape:window-width="1945"
     inkscape:pageshadow="2"
     inkscape:pageopacity="0"
     guidetolerance="10"
     gridtolerance="10"
     objecttolerance="10"
     borderopacity="1"
     bordercolor="#666666"
     pagecolor="#ffffff"
     inkscape:document-rotation="0" />
  <defs
     id="defs835">
    <rect
       id="rect5405"
       height="110.72583"
       width="347.38708"
       y="148.44562"
       x="632.71902" />
    <rect
       x="257.95468"
       y="23.11858"
       width="457.50452"
       height="163.04682"
       id="rect1541" />
    <style
       id="style833">
      .cls-1 {
        fill: #65d6b4;
      }

      .cls-18, .cls-2, .cls-3 {
        fill: none;
        stroke-linecap: round;
        stroke-miterlimit: 10;
      }

      .cls-2 {
        stroke: #161f3d;
      }

      .cls-2, .cls-3 {
        stroke-width: 2px;
      }

      .cls-3 {
        stroke: #ffc13b;
      }

      .cls-4 {
        fill: #ef7bab;
      }

      .cls-5 {
        fill: #5bbbe5;
      }

      .cls-6 {
        fill: #ffc13b;
      }

      .cls-7 {
        fill: #6d47a8;
      }

      .cls-8 {
        fill: #8091f4;
      }

      .cls-9 {
        fill: #7fa4f7;
      }

      .cls-10 {
        fill: #f55b7f;
      }

      .cls-11, .cls-13 {
        fill: #151f3d;
      }

      .cls-11 {
        opacity: 0.7;
        mix-blend-mode: soft-light;
        isolation: isolate;
      }

      .cls-12 {
        fill: #9f62d1;
      }

      .cls-14 {
        fill: #161f3d;
      }

      .cls-15 {
        fill: #ebe7fe;
      }

      .cls-16 {
        fill: #93c3fc;
      }

      .cls-17 {
        fill: #f2ca6f;
      }

      .cls-18 {
        stroke: #9f62d1;
        stroke-width: 1.5px;
      }
    </style>
  </defs>
  <g
     transform="matrix(0.44740283,0,0,0.44740283,21.007452,-0.62860098)"
     data-name="Group 11"
     id="Group_11">
    <path
       d="m 212.456,263.351 8.256,-34.052 a 4.047,4.047 0 0 0 -5.334,-3.642 c -0.1,0.035 -0.2,0.071 -0.3,0.108 a 19.68,19.68 0 0 1 -11.568,0.687 c -13.554,-3.286 -20.43,-19.806 -10.228,-32.5 a 17.321,17.321 0 0 1 10.339,-6.121 20.3,20.3 0 0 1 19.32,6.25 l 0.046,0.051 a 4.022,4.022 0 0 0 6.436,-0.759 l 8.219,-33.9 A 12.553,12.553 0 0 0 228.4,144.31 L 124.516,119.124 a 12.554,12.554 0 0 0 -15.158,9.243 L 84.172,232.25 a 12.554,12.554 0 0 0 9.243,15.158 l 32.855,7.965 a 4.04,4.04 0 0 1 1.846,6.873 l -0.05,0.045 a 20.3,20.3 0 0 0 -6.25,19.32 17.312,17.312 0 0 0 6.121,10.339 c 12.7,10.2 29.218,3.326 32.5,-10.228 a 19.688,19.688 0 0 0 -0.687,-11.568 c -0.037,-0.1 -0.074,-0.2 -0.109,-0.3 a 4.052,4.052 0 0 1 4.809,-5.222 l 32.844,7.962 a 12.553,12.553 0 0 0 15.162,-9.243 z"
       class="cls-1"
       data-name="Path 1"
       id="Path_1" />
    <path
       d="m 127.347,118.75 a 3.921,3.921 0 1 0 -5.013,3.765"
       class="cls-2"
       data-name="Path 2"
       id="Path_2" />
    <path
       d="m 228.6,143.5 a 3.921,3.921 0 1 0 -5.013,3.765"
       class="cls-2"
       data-name="Path 3"
       id="Path_3" />
    <line
       y2="0"
       x1="0"
       transform="translate(124.009,78.25)"
       x2="59.75"
       y1="37.5"
       class="cls-3"
       data-name="Line 1"
       id="Line_1" />
    <g
       data-name="Group 3"
       id="Group_3">
      <path
         d="m 189.485,77.156 a 6.749,6.749 0 1 1 -2.354,-10.8 l 1.08,-6.047"
         class="cls-2"
         data-name="Path 4"
         id="Path_4" />
      <path
         d="m 190.838,58.381 a 2,2 0 1 0 -1.862,2.128 2,2 0 0 0 1.862,-2.128 z"
         class="cls-2"
         data-name="Path 5"
         id="Path_5" />
    </g>
    <line
       y1="0"
       x1="0"
       transform="translate(183.759,78.25)"
       y2="62"
       x2="40.75"
       class="cls-3"
       data-name="Line 2"
       id="Line_2" />
    <path
       d="m 241.955,309.333 h -35.039 a 4.046,4.046 0 0 0 -2.282,6.042 c 0.057,0.09 0.116,0.179 0.176,0.267 a 19.683,19.683 0 0 1 3.393,11.08 c 0,13.946 -14.435,24.521 -29.179,17.6 a 17.321,17.321 0 0 1 -8.385,-8.606 20.307,20.307 0 0 1 1.522,-20.249 l 0.039,-0.056 a 4.024,4.024 0 0 0 -2.254,-6.077 h -34.884 a 12.554,12.554 0 0 0 -12.553,12.554 V 428.78 a 12.553,12.553 0 0 0 12.553,12.553 h 106.893 a 12.554,12.554 0 0 0 12.554,-12.553 v -33.807 a 4.039,4.039 0 0 1 6.243,-3.414 l 0.056,0.038 a 20.3,20.3 0 0 0 20.249,1.523 17.325,17.325 0 0 0 8.606,-8.385 c 6.922,-14.745 -3.653,-29.179 -17.6,-29.179 a 19.683,19.683 0 0 0 -11.08,3.393 c -0.089,0.06 -0.177,0.118 -0.267,0.176 a 4.052,4.052 0 0 1 -6.208,-3.442 v -33.8 a 12.554,12.554 0 0 0 -12.553,-12.55 z"
       class="cls-4"
       data-name="Path 6"
       id="Path_6" />
    <path
       d="m 292.509,321.887 v 35.039 a 4.046,4.046 0 0 0 6.041,2.282 c 0.09,-0.057 0.179,-0.116 0.267,-0.176 a 19.686,19.686 0 0 1 11.081,-3.393 c 13.946,0 24.521,14.435 17.6,29.179 a 17.317,17.317 0 0 1 -8.606,8.385 20.307,20.307 0 0 1 -20.249,-1.522 l -0.056,-0.039 a 4.023,4.023 0 0 0 -6.076,2.254 v 34.884 a 12.553,12.553 0 0 0 12.553,12.553 H 411.955 A 12.554,12.554 0 0 0 424.509,428.78 V 321.887 a 12.554,12.554 0 0 0 -12.554,-12.554 h -33.807 a 4.04,4.04 0 0 1 -3.414,-6.243 l 0.039,-0.056 a 20.307,20.307 0 0 0 1.522,-20.249 17.321,17.321 0 0 0 -8.385,-8.606 c -14.744,-6.922 -29.179,3.653 -29.179,17.6 a 19.683,19.683 0 0 0 3.393,11.08 c 0.06,0.088 0.119,0.177 0.176,0.267 a 4.052,4.052 0 0 1 -3.442,6.208 h -33.8 a 12.554,12.554 0 0 0 -12.549,12.553 z"
       class="cls-5"
       data-name="Path 7"
       id="Path_7" />
    <path
       d="m 324.565,135.669 a 11.363,11.363 0 0 0 -3.712,-2.059 c -1.928,-0.53 0.084,1.579 0.084,1.579 0,0 -2.971,-0.039 -4.541,0.955 -1.57,0.994 2.185,3.842 6.611,5.189 z"
       class="cls-6"
       data-name="Path 8"
       id="Path_8" />
    <path
       d="m 359.754,129.466 a 10.992,10.992 0 0 0 -5.336,-0.3 c -2.393,0.235 -5.612,1.8 -7.825,2.741 a 50.061,50.061 0 0 1 -6.593,2.274 11.6,11.6 0 0 1 -5.1,0.493 c -1.644,-0.308 -3.128,-1.238 -4.781,-1.493 a 6.961,6.961 0 0 0 -7.151,4.28 9.079,9.079 0 0 0 1.18,8.524 7.67,7.67 0 0 0 2.019,2.015 9.675,9.675 0 0 0 4.287,1.323 c 8.582,0.964 17.129,-2.731 23.967,-8.006 1.575,-1.215 3.189,-2.7 3.463,-4.668"
       class="cls-7"
       data-name="Path 9"
       id="Path_9" />
    <path
       d="m 382.826,177.228 a 79.581,79.581 0 0 0 8,0.613 c 3,-0.02 4.455,-1.441 -0.185,-2.665 -3.354,-0.885 -3.336,-1.436 -6.525,-3.79 -0.949,-0.7 -2.667,0.018 -2.667,0.018 a 9.211,9.211 0 0 0 1.377,5.824 z"
       class="cls-8"
       data-name="Path 10"
       id="Path_10" />
    <path
       d="m 348.057,174.546 c 0,0 1.518,2.656 -0.816,2.672 l -13.333,0.09 c -1.166,0.007 -0.018,-2.667 7.149,-2.715 z"
       class="cls-8"
       data-name="Path 11"
       id="Path_11" />
    <path
       d="m 338.743,371.9 8.641,-2.4 c 0,0 3.625,-2.5 16.291,15.833 12.666,18.333 21.084,58.542 21.084,58.542 h -8.5 C 372.759,430.708 344.842,395.5 344.675,395 c 0,0 -3.031,-14.862 -5.932,-23.1 z"
       class="cls-8"
       data-name="Path 12"
       id="Path_12" />
    <path
       d="m 338.743,371.9 a 60.315,60.315 0 0 0 -11.484,6.1 c 0,0 -8.917,13.167 -11.25,29 -2.333,15.833 2.833,27.333 12.833,36.333 h 7.5 c 0,0 -7.833,-11.833 -6.667,-22.166 1.166,-10.333 14.834,-26.667 15,-26.167 0,0 2.969,-12.862 -5.932,-23.1 z"
       class="cls-9"
       data-name="Path 13"
       id="Path_13" />
    <path
       d="m 145.634,369.625 a 11.353,11.353 0 0 1 4.125,-1 c 2,0 -0.5,1.5 -0.5,1.5 0,0 2.875,0.75 4.125,2.125 1.25,1.375 -3.125,3.125 -7.75,3.25 z"
       class="cls-6"
       data-name="Path 14"
       id="Path_14" />
    <path
       d="m 355.586,154.161 c 0,0 -6.724,-8.621 -14.386,-7.9 -7.662,0.721 -9.729,15.566 -0.818,27.173 l 0.675,1.162 7,-0.047 c 0,0 -1.229,-9.159 -1.748,-11.989 -0.519,-2.83 5.185,2.632 7.529,4.283 2.344,1.651 13.009,1.246 11.606,-9.078 -1.403,-10.324 -9.858,-3.604 -9.858,-3.604 z"
       class="cls-10"
       data-name="Path 15"
       id="Path_15" />
    <path
       d="m 355.586,154.161 c 0,0 -6.724,-8.621 -14.386,-7.9 -7.662,0.721 -9.729,15.566 -0.818,27.173 l 0.675,1.162 7,-0.047 c 0,0 -1.229,-9.159 -1.748,-11.989 -0.519,-2.83 5.185,2.632 7.529,4.283 2.344,1.651 13.009,1.246 11.606,-9.078 -1.403,-10.324 -9.858,-3.604 -9.858,-3.604 z"
       class="cls-11"
       data-name="Path 16"
       id="Path_16" />
    <path
       d="m 379.92,154.164 a 23.108,23.108 0 0 1 5.385,7.631 c 1.7,4.322 -2.613,8.018 -3.608,8.691 -0.995,0.673 1.714,7.072 1.714,7.072 0,0 -14.653,2.015 -27.5,0.6 -12.847,-1.415 -9.223,-8.438 -5.242,-11.3 3.981,-2.862 19.436,-9.464 19.436,-9.464 z"
       class="cls-10"
       data-name="Path 17"
       id="Path_17" />
    <path
       d="m 114.509,379 -21.375,-1.875 c 0,0 -6.125,11.875 -5.75,19.75 0.375,7.875 2.625,18.125 -3.625,32.125 -6.25,14 -7.875,17.5 -7.875,17.5 a 23.751,23.751 0 0 0 7.875,0 74.975,74.975 0 0 0 15.625,-20.375 c 5.193,-10.178 6.848,-22.342 7.259,-26.164"
       class="cls-12"
       data-name="Path 18"
       id="Path_18" />
    <path
       d="m 106.643,399.961 c 0.083,-0.778 0.116,-1.211 0.116,-1.211 0,0 11,9.125 14.625,18.5 3.625,9.375 -2.875,28.5 -2.875,28.5 a 22.3,22.3 0 0 0 7.5,0.125 48.28,48.28 0 0 0 10,-19.75 C 138.634,414.5 136.759,406.5 125.884,392.375 115.009,378.25 114.509,379 114.509,379"
       class="cls-7"
       data-name="Path 19"
       id="Path_19" />
    <path
       d="m 355.409,124.392 a 10.685,10.685 0 0 1 -9.123,0.024 c -1.912,-0.914 -3.69,-3.1 -2.745,-4.993 a 8.16,8.16 0 0 1 1.993,-2.037 c 1.529,-1.436 2.246,-3.508 3.293,-5.325 1.047,-1.817 2.772,-3.563 4.867,-3.464 1.43,0.067 2.839,1 4.2,0.569 a 7.066,7.066 0 0 0 2.107,-1.517 5.168,5.168 0 0 1 4.485,-1.071 3.868,3.868 0 0 1 2.877,3.422 c 0.037,1.1 -0.464,2.213 -0.144,3.261 0.561,1.842 3.117,2.167 4.291,3.694 1.427,1.856 0.12,4.744 -1.935,5.863 -2.055,1.119 -4.523,1.029 -6.862,1.1 a 44.3,44.3 0 0 0 -8.064,0.975"
       class="cls-13"
       data-name="Path 20"
       id="Path_20" />
    <path
       d="m 313.634,336.5 a 5.957,5.957 0 0 0 -2.375,6.125 c 0.875,4 1.875,5.875 4.5,6.125 2.625,0.25 7.125,-1.125 7.75,-4.875 0.625,-3.75 -5,-10.375 -9.875,-7.375 z"
       class="cls-6"
       data-name="Path 21"
       id="Path_21" />
    <path
       d="m 105.509,348.5 c 0,0 3.834,-17.083 17.666,-24.083 v 10.25 L 111.6,353.083 Z"
       class="cls-8"
       data-name="Path 22"
       id="Path_22" />
    <path
       d="m 105.509,348.5 c 0,0 3.834,-17.083 17.666,-24.083 v 10.25 L 111.6,353.083 Z"
       class="cls-11"
       data-name="Path 23"
       id="Path_23" />
    <path
       d="m 113.842,347.333 c 0,0 5.667,-1.166 8.833,5.334 3.166,6.5 6,10.166 10.5,12.5 4.5,2.334 13.167,1.166 13.667,4.666 0.5,3.5 0.5,8.5 -7.167,7.5 -7.667,-1 -11.333,-1.833 -14,-3.666 0,0 -0.833,4.333 -1.166,7.333 -0.333,3 0.833,6.833 -8.5,9 -9.333,2.167 -17.5,1.333 -24.5,-3.167 -7,-4.5 7.5,-31.833 9.5,-34.5 2,-2.667 8.5,-10.666 15.333,-6.5 z"
       class="cls-9"
       data-name="Path 24"
       id="Path_24" />
    <path
       d="m 124.884,337.625 c -2,-1.5 -4.042,-1.625 -6.709,-0.958 -2.667,0.667 -2.833,5.583 -2.833,5.583 -0.167,-1 -2.708,-2.208 -3.167,0.583 a 2.275,2.275 0 0 0 2.5,2.917 5.241,5.241 0 0 0 0.265,1.583 4.633,4.633 0 0 1 1.985,0.25 c 2.115,0.832 3.534,1.536 4.672,3.256 3.668,-0.225 4.748,-2.6 5.245,-6.506 0.667,-5.25 -1.958,-6.708 -1.958,-6.708 z"
       class="cls-6"
       data-name="Path 25"
       id="Path_25" />
    <path
       d="m 113.935,340.168 a 4.391,4.391 0 0 0 0.114,1.556 1.492,1.492 0 0 0 1.06,1.053 1.728,1.728 0 0 0 1.663,-1.019 c 0.342,-0.6 0.5,-1.3 0.895,-1.879 a 2.857,2.857 0 0 1 2.43,-1.228 9.2,9.2 0 0 1 2.027,0.495 7.433,7.433 0 0 0 8.016,-3.1 4.345,4.345 0 0 0 0.734,-3.19 2.445,2.445 0 0 0 -2.366,-1.976 c -1.195,0.083 -2.041,1.212 -3.17,1.611 -1.282,0.454 -2.68,-0.1 -4.039,-0.158 a 6.724,6.724 0 0 0 -5.874,2.921 9.263,9.263 0 0 0 -1.49,4.918"
       class="cls-13"
       data-name="Path 26"
       id="Path_26" />
    <path
       d="m 125.675,373.667 c -2.44,-1.108 -10.583,-7.667 -11.75,-12.25 0,0 2.584,16.916 10.584,19.583 z"
       class="cls-14"
       data-name="Path 27"
       id="Path_27" />
    <path
       d="m 359.282,328.918 a 11.341,11.341 0 0 1 1.238,-4.06 c 1.017,-1.722 1.037,1.193 1.037,1.193 0,0 2.108,-2.094 3.928,-2.471 1.82,-0.377 1.1,4.28 -1.144,8.326 z"
       class="cls-6"
       data-name="Path 28"
       id="Path_28" />
    <path
       d="m 284.173,363.017 a 11.359,11.359 0 0 0 -3.42,-2.515 c -1.845,-0.772 -0.117,1.577 -0.117,1.577 0,0 -2.942,-0.418 -4.626,0.368 -1.684,0.786 1.677,4.089 5.895,5.99 z"
       class="cls-6"
       data-name="Path 29"
       id="Path_29" />
    <path
       d="m 326.759,345.5 a 101,101 0 0 0 -10.125,1.375 c -4.125,0.875 -6.75,2.25 -10.25,8 -3.5,5.75 -8.373,8.267 -10.875,8.625 -4.375,0.625 -7.782,-1.033 -9.375,-1.375 -3.5,-0.75 -7.875,5.5 -3.25,9.25 4.625,3.75 18.875,8 28.875,-4.25 a 7.408,7.408 0 0 0 8.625,5.125 c 0,0 3.75,4.25 6.875,5.75 a 53.929,53.929 0 0 1 20.125,-8.5 c 0,0 -1.625,-7.25 -4.625,-11.75 a 22.109,22.109 0 0 0 18.25,-12 c 6.5,-12 3.625,-16.875 -0.25,-17.5 -3.875,-0.625 -5.875,8 -9,10.75 -3.125,2.75 -6.625,5.625 -16,4.625 -9.375,-1 -9,1.875 -9,1.875 z"
       class="cls-15"
       data-name="Path 30"
       id="Path_30" />
    <path
       d="m 312.134,335.5 a 12.37,12.37 0 0 0 -1.925,2.657 2.269,2.269 0 0 0 0.326,2.281 2.609,2.609 0 0 0 2.693,0.416 c 0.914,-0.294 1.742,-0.828 2.673,-1.063 a 4.545,4.545 0 0 1 5.4,4.007 c 0.074,1.548 -0.671,3 -1.039,4.508 -0.368,1.508 -0.2,3.394 1.129,4.185 2.136,1.267 4.735,-1.416 7.173,-0.946 1.624,0.313 2.637,1.9 4.017,2.815 2.053,1.356 4.844,1.088 7.049,0 a 8.006,8.006 0 0 0 3.922,-3.9 5.216,5.216 0 0 0 -0.657,-5.327 c -1.086,-1.262 -2.984,-2.082 -3.114,-3.741 -0.084,-1.066 0.648,-2.019 0.838,-3.072 0.337,-1.873 -1.179,-3.687 -2.972,-4.324 a 8.823,8.823 0 0 0 -5.642,-0.029 c -1.622,0.539 -3.625,1.754 -5.5,1.414 -1.088,-0.2 -3.189,-1.441 -4.25,-1.75 -3.513,-1.031 -6.371,-0.881 -10.121,1.869 z"
       class="cls-13"
       data-name="Path 31"
       id="Path_31" />
    <path
       d="m 359.484,129.074 c 5.273,-3.965 13.224,-2.944 18.3,1.267 5.076,4.211 7.556,10.924 8.01,17.5 a 7.657,7.657 0 0 1 -0.7,4.485 7.436,7.436 0 0 1 -2.665,2.374 35.03,35.03 0 0 1 -14.847,4.658 c -4.213,0.4 -8.812,0.072 -12.092,-2.6 -3.712,-3.025 -4.773,-8.261 -4.725,-13.049 a 21.213,21.213 0 0 1 1.891,-9.3 11.015,11.015 0 0 1 7.07,-5.989"
       class="cls-12"
       data-name="Path 32"
       id="Path_32" />
    <path
       d="m 353.082,161.523 a 11.354,11.354 0 0 0 -3.992,1.443 c -1.668,1.1 1.245,0.975 1.245,0.975 0,0 -1.983,2.212 -2.267,4.049 -0.284,1.837 4.331,0.88 8.257,-1.568 z"
       class="cls-6"
       data-name="Path 33"
       id="Path_33" />
    <path
       d="m 337.259,443.875 a 1.668,1.668 0 0 1 -1.792,2.167 h -13.333 c -1.167,0 0,-2.559 7.166,-2.667 8.334,-0.125 7.959,0.5 7.959,0.5 z"
       class="cls-10"
       data-name="Path 34"
       id="Path_34" />
    <path
       d="m 118.046,446.25 a 1.668,1.668 0 0 0 1.791,2.167 h 13.334 c 1.166,0 0,-2.559 -7.167,-2.667 -8.333,-0.125 -7.958,0.5 -7.958,0.5 z"
       class="cls-14"
       data-name="Path 35"
       id="Path_35" />
    <path
       d="m 75.546,446.25 a 1.668,1.668 0 0 0 1.791,2.167 h 13.334 c 1.166,0 0,-2.559 -7.167,-2.667 -8.333,-0.125 -7.958,0.5 -7.958,0.5 z"
       class="cls-14"
       data-name="Path 36"
       id="Path_36" />
    <path
       d="m 385.134,443.875 a 1.668,1.668 0 0 1 -1.792,2.167 h -13.333 c -1.167,0 0,-2.559 7.166,-2.667 8.334,-0.125 7.959,0.5 7.959,0.5 z"
       class="cls-10"
       data-name="Path 37"
       id="Path_37" />
    <path
       d="m 331.356,381.527 6.81,-3.167 2.7,5.671 -2.184,4.817 -5.118,-2.009 z"
       class="cls-16"
       data-name="Path 38"
       id="Path_38" />
    <path
       d="m 346.022,376.194 6.811,-3.167 2.7,5.671 -2.184,4.817 -5.117,-2.009 z"
       class="cls-9"
       data-name="Path 39"
       id="Path_39" />
    <g
       data-name="Group 4"
       id="Group_4">
      <path
         d="m 197.214,39.344 a 52.678,52.678 0 0 0 -2.09,-5.2 c -0.812,-1.512 -0.865,2.155 -0.865,2.155 0,0 -4.637,-2.069 -6.495,-0.429 -1.858,1.64 6.892,7.435 6.892,7.435 z"
         class="cls-6"
         data-name="Path 40"
         id="Path_40" />
      <path
         d="M 231.5,88.435 211.668,76.727 c 0,0 -6.1,6.411 -17,22.42 -10.9,16.009 -20.684,29.7 -20.684,29.7 a 18.189,18.189 0 0 0 7.25,2.106 c 0,0 25.735,-18.125 34.91,-29.991"
         class="cls-9"
         data-name="Path 41"
         id="Path_41" />
      <path
         d="m 227.775,86.631 4.551,2.233 c 0,0 0.551,7.842 0.446,15.008 -0.105,7.166 -0.707,14.158 -6.637,20.738 -5.93,6.58 -17.52,12.578 -17.52,12.578 -5.34,0.422 -7.8,-2.114 -7.8,-2.114 19.877,-14.21 15.335,-34.112 15.335,-34.112 z"
         class="cls-8"
         data-name="Path 42"
         id="Path_42" />
      <path
         d="m 242.666,54.345 c 0,0 -3.782,-3.556 -14.6,-4.381 -10.818,-0.825 -17.256,-5.42 -23.353,-10.177 -6.097,-4.757 -13.489,-0.864 -9.6,6.527 3.889,7.391 13.47,13.532 22.621,14.667 a 137.382,137.382 0 0 0 -6.683,12.4 c -1.9,4.473 -0.943,7.487 3.177,10.714 4.12,3.227 13.217,8.028 17.535,9.092 4.318,1.064 13.067,-4.476 18.914,-16.725 a 8.913,8.913 0 0 1 2.191,9.7 c -2.251,5.8 -11.346,0.834 -12.772,7.147 -1.426,6.313 7.877,8.449 15.439,4.226 7.562,-4.223 15.694,-24.439 -1.293,-36.856 L 247.6,59.251 a 5.014,5.014 0 0 1 -4.934,-4.906 z"
         class="cls-10"
         data-name="Path 43"
         id="Path_43" />
      <path
         d="m 240.786,57.485 c -0.181,-0.466 5.424,-6.088 5.424,-6.088 0,0 -3.324,-0.716 -1.113,-3.684 1.827,-2.453 3.156,0.713 3.156,0.713 0,0 2.054,-3.637 4.88,-3.095 a 37.788,37.788 0 0 1 7.293,2.774 12.654,12.654 0 0 1 -1.24,4.982 c -1,1.929 -3.269,6.953 -5.261,6.424 -1.992,-0.529 -3.818,-1.056 -3.818,-1.056 l -2.512,0.8 c 0,0 -5.041,2.756 -6.809,-1.77 z"
         class="cls-6"
         data-name="Path 44"
         id="Path_44" />
      <path
         d="m 242.112,92.175 c 0,0 -3.307,-1.883 -5.671,0.25 -2.364,2.133 0.38,8.173 5.759,5.085 z"
         class="cls-6"
         data-name="Path 45"
         id="Path_45" />
      <path
         d="m 251.871,45.65 a 1.555,1.555 0 0 0 -1.009,-2.174 2.528,2.528 0 0 0 -2.468,0.951 7.473,7.473 0 0 0 -1.209,2.5 q -0.942,2.8 -1.885,5.6 a 9.415,9.415 0 0 0 -0.728,4.737 7.176,7.176 0 0 0 1.718,3.184 8.642,8.642 0 0 0 4.268,2.935 4.718,4.718 0 0 0 4.794,-1.35 7.506,7.506 0 0 0 1.183,-2.652 l 0.961,-3.223 a 9.569,9.569 0 0 1 -5.813,-1.909 3.6,3.6 0 0 1 -1.287,-1.524 c -0.5,-1.339 0.36,-2.763 1.139,-3.962 0.779,-1.199 1.523,-2.74 0.818,-3.984"
         class="cls-13"
         data-name="Path 46"
         id="Path_46" />
      <path
         d="m 251.289,45.141 a 2.494,2.494 0 0 1 1.424,-2.171 2.344,2.344 0 0 1 1.1,-0.314 5.55,5.55 0 0 1 2.409,1.088 c 1.68,0.894 3.7,0.653 5.606,0.711 1.15,0.035 2.525,0.366 2.881,1.459 0.382,1.174 -0.725,2.314 -1.849,2.823 a 7.361,7.361 0 0 1 -6.176,-0.092 c -1.974,-0.966 -3.454,-2.8 -5.5,-3.6"
         class="cls-13"
         data-name="Path 47"
         id="Path_47" />
      <path
         d="m 200.812,135.074 c 0,0 -2.875,2.791 0.458,2.84 3.333,0.049 6.622,3.1 10.788,3.159 4.166,0.059 1.025,-1.652 -1.468,-2.189 -2.493,-0.537 -1.975,-1.7 -1.975,-1.7 z"
         class="cls-7"
         data-name="Path 48"
         id="Path_48" />
      <path
         d="m 173.987,128.847 c 0,0 -2.674,2.794 0.424,2.84 3.098,0.046 6.151,3.09 10.022,3.147 3.871,0.057 0.954,-1.653 -1.362,-2.187 -2.316,-0.534 -1.834,-1.694 -1.834,-1.694 z"
         class="cls-7"
         data-name="Path 49"
         id="Path_49" />
      <path
         d="m 231.762,93.19 c 0,0 -16.273,-4.239 -21.425,-16.649 l -2.737,4.627 c 0,0 6.5,11.432 24.162,12.022 z"
         class="cls-14"
         data-name="Path 50"
         id="Path_50" />
      <path
         d="m 250.676,76.465 1.54,-2.728 A 10.339,10.339 0 0 1 253.33,83 c 0,0 -0.669,-5.506 -2.654,-6.535 z"
         class="cls-14"
         data-name="Path 51"
         id="Path_51" />
      <path
         d="m 217.733,60.981 1.7,-2.476 c 0,0 -10.749,-0.157 -17.2,-3.752 0.006,0 8.084,6.119 15.5,6.228 z"
         class="cls-14"
         data-name="Path 52"
         id="Path_52" />
    </g>
    <path
       d="m 355.319,114.5 a 4.324,4.324 0 0 0 -3.967,4.86 c 0.364,4.5 1.228,9.159 6.223,8.292 l 0.522,3.33 a 8.862,8.862 0 0 0 7.142,-3.715 l -1.2,-5.325 c 0,0 0.597,-10.009 -8.72,-7.442 z"
       class="cls-6"
       data-name="Path 53"
       id="Path_53" />
    <path
       d="m 349.036,115.441 a 3.792,3.792 0 0 0 3.156,2.584 12.244,12.244 0 0 0 4.286,-0.317 9.45,9.45 0 0 1 4.281,-0.089 c 1.082,0.308 2.176,1.313 1.858,2.392 -0.124,0.419 -0.444,0.764 -0.541,1.189 -0.217,0.948 0.762,1.775 1.714,1.974 a 3.856,3.856 0 0 0 4.485,-4.873 5.983,5.983 0 0 0 -1.4,-2.26 13.1,13.1 0 0 0 -9.061,-4.223 12.909,12.909 0 0 0 -9.34,3.544"
       class="cls-13"
       data-name="Path 54"
       id="Path_54" />
    <path
       d="m 367.429,135.415 c 0,0 -2.965,12.853 -9.7,15.648 -6.735,2.795 -6.005,-0.709 -6.005,-0.709 0,0 0.036,5.25 6.809,8.7 0.003,0.004 12.79,-9.998 8.896,-23.639 z"
       class="cls-14"
       data-name="Path 55"
       id="Path_55" />
    <path
       d="m 378.022,156.927 c 0,0 1.693,-8.512 -1.111,-16.493 0,0 -2.382,17.516 -5.624,18.788 a 31.331,31.331 0 0 0 6.735,-2.295 z"
       class="cls-14"
       data-name="Path 56"
       id="Path_56" />
    <path
       d="m 378.12,140.848 c 0.029,5.952 -0.963,12.075 -4.079,17.147 -3.116,5.072 -8.643,8.916 -14.595,8.871 a 8.4,8.4 0 0 1 -5.017,-1.456 4.691,4.691 0 0 1 -1.908,-4.644 5.368,5.368 0 0 1 1.97,-2.813 c 1.79,-1.439 4.06,-2.166 5.9,-3.543 a 14.358,14.358 0 0 0 3.491,-4.019 24.561,24.561 0 0 0 3.548,-14.976"
       class="cls-12"
       data-name="Path 57"
       id="Path_57" />
    <path
       d="m 381.755,172.9 -0.389,-2 c 0,0 -12.366,1.713 -17.612,2 0,0 11.381,0.8 18.001,0 z"
       class="cls-14"
       data-name="Path 58"
       id="Path_58" />
    <path
       d="M 305.062,309.333 H 340.1 a 4.047,4.047 0 0 0 2.283,-6.042 c -0.058,-0.089 -0.117,-0.178 -0.177,-0.266 a 19.694,19.694 0 0 1 -3.393,-11.081 c 0,-13.946 14.435,-24.521 29.179,-17.6 a 17.317,17.317 0 0 1 8.385,8.606 20.3,20.3 0 0 1 -1.522,20.249 l -0.038,0.056 a 4.023,4.023 0 0 0 2.253,6.076 h 34.884 a 12.554,12.554 0 0 0 12.554,-12.553 V 189.887 A 12.554,12.554 0 0 0 411.954,177.333 H 305.062 a 12.554,12.554 0 0 0 -12.553,12.554 v 33.807 a 4.04,4.04 0 0 1 -6.244,3.414 l -0.056,-0.039 a 20.306,20.306 0 0 0 -20.248,-1.522 17.323,17.323 0 0 0 -8.607,8.385 c -6.922,14.744 3.653,29.179 17.6,29.179 a 19.686,19.686 0 0 0 11.081,-3.393 c 0.088,-0.06 0.177,-0.119 0.266,-0.176 a 4.052,4.052 0 0 1 6.209,3.442 v 33.8 a 12.553,12.553 0 0 0 12.552,12.549 z"
       class="cls-17"
       data-name="Path 59"
       id="Path_59" />
    <line
       x2="0"
       y1="0"
       transform="translate(189.509,2.155)"
       y2="54.345001"
       x1="12.666"
       class="cls-18"
       data-name="Line 3"
       id="Line_3" />
  </g>
  <text
     transform="translate(54.771)"
     xml:space="preserve"
     id="text1539"
     style="font-style:normal;font-weight:normal;font-size:40px;line-height:1.25;font-family:sans-serif;white-space:pre;shape-inside:url(#rect1541);fill:#000000;fill-opacity:1;stroke:none;" />
  <text
     xml:space="preserve"
     style="font-style:normal;font-variant:normal;font-weight:normal;font-stretch:normal;font-size:80px;line-height:1.25;font-family:Roboto;-inkscape-font-specification:'Roboto, Normal';font-variant-ligatures:normal;font-variant-caps:normal;font-variant-numeric:normal;font-variant-east-asian:normal;text-align:center;text-anchor:middle;fill:#2e384d;fill-opacity:1;stroke:none;"
     x="476.33789"
     y="72.397659"
     id="text1547"><tspan
       sodipodi:role="line"
       id="tspan1545"
       x="476.33789"
       y="72.397659">Team-Based</tspan><tspan
       sodipodi:role="line"
       x="476.33789"
       y="172.39766"
       id="tspan1549">Learning</tspan></text>
  <text
     style="fill:black;fill-opacity:1;line-height:1.25;stroke:none;font-family:sans-serif;font-style:normal;font-weight:normal;font-size:40px;white-space:pre;shape-inside:url(#rect5405);"
     id="text5403"
     xml:space="preserve" />
</svg>
